<svg width="241" height="140" viewBox="0 0 241 140" fill="none" xmlns="http://www.w3.org/2000/svg"><path d="M84 130.182C93.6509 133.482 104.701 131.777 114.306 129.129C137.905 122.624 161.744 108.715 174.033 86.7439C179.443 77.0699 186.554 57.7246 179.594 46.9523C175.283 40.2789 167.439 45.5955 163.877 50.0724C158.911 56.3132 153.156 70.0709 159.685 77.1404C169.695 87.9788 191.651 71.4652 199.301 65.3488C216.704 51.4362 232.504 27.1854 223.28 4" stroke="black" stroke-linecap="round"/><path d="M209 22.3155C214.49 18.0058 218.908 11.2135 222.297 5.10827C224.196 1.68725 226.094 6.72658 226.899 9C228.713 14.1204 230.913 20.8246 236.257 22.2565" stroke="black" stroke-linecap="round"/><path d="M5.136 135.344C4.64 135.168 4.232 134.968 3.912 134.744C3.608 134.52 3.352 134.152 3.144 133.64C2.888 132.92 2.76 132.072 2.76 131.096C2.76 130.152 2.816 129.352 2.928 128.696C3.04 128.024 3.232 127.344 3.504 126.656L3.72 126.152C3.976 125.496 4.16 125.064 4.272 124.856C4.544 124.232 5.024 123.424 5.712 122.432C6.32 121.504 6.8 120.832 7.152 120.416C7.504 119.984 7.84 119.64 8.16 119.384C8.496 119.128 9.104 118.696 9.984 118.088C10.352 117.816 10.776 117.68 11.256 117.68C11.656 117.68 12.024 117.784 12.36 117.992C12.712 118.184 12.976 118.464 13.152 118.832C13.328 119.136 13.416 119.544 13.416 120.056C13.416 120.776 13.256 121.528 12.936 122.312C12.616 123.096 12.208 123.712 11.712 124.16C11.552 124.304 11.4 124.376 11.256 124.376C11.08 124.376 10.848 124.248 10.56 123.992C10.416 123.72 10.336 123.56 10.32 123.512C10.304 123.464 10.336 123.432 10.416 123.416C10.56 123.24 10.768 122.904 11.04 122.408C11.328 121.896 11.52 121.496 11.616 121.208C11.648 121.112 11.68 120.952 11.712 120.728C11.84 120.168 11.904 119.792 11.904 119.6C11.904 119.408 11.848 119.256 11.736 119.144C11.688 119.096 11.624 119.072 11.544 119.072C11.416 119.072 11.192 119.152 10.872 119.312C10.488 119.472 10 119.832 9.408 120.392C8.816 120.952 8.28 121.56 7.8 122.216C7.064 123.176 6.496 123.968 6.096 124.592C5.712 125.216 5.416 125.848 5.208 126.488L4.944 127.112C4.96 127.176 4.936 127.336 4.872 127.592C4.808 127.848 4.736 128.056 4.656 128.216C4.432 129.144 4.32 130.064 4.32 130.976C4.32 131.664 4.376 132.272 4.488 132.8C4.616 133.328 4.792 133.688 5.016 133.88C5.144 133.992 5.336 134.048 5.592 134.048C5.912 134.048 6.304 133.968 6.768 133.808C7.248 133.648 7.832 133.416 8.52 133.112C8.888 132.968 9.232 132.8 9.552 132.608C9.888 132.416 10.136 132.24 10.296 132.08C10.712 131.776 11.048 131.624 11.304 131.624C11.48 131.56 11.6 131.528 11.664 131.528C11.696 131.528 11.712 131.552 11.712 131.6C11.728 131.632 11.736 131.68 11.736 131.744C11.736 131.968 11.616 132.216 11.376 132.488C11.136 132.744 10.816 132.992 10.416 133.232C10.096 133.552 9.712 133.8 9.264 133.976C8.752 134.344 8.152 134.672 7.464 134.96C6.792 135.248 6.176 135.392 5.616 135.392C5.488 135.392 5.328 135.376 5.136 135.344ZM14.5575 134C14.5095 134.016 14.4295 134.024 14.3175 134.024C14.0615 134.024 13.8615 133.896 13.7175 133.64C13.5735 133.384 13.5015 133.032 13.5015 132.584C13.5015 132.216 13.5495 131.792 13.6455 131.312C13.8215 130.848 13.9095 130.512 13.9095 130.304C13.9575 130 14.1175 129.456 14.3895 128.672C14.6775 127.872 14.8615 127.392 14.9415 127.232C15.0055 127.232 15.0615 127.184 15.1095 127.088C15.1575 126.976 15.1815 126.856 15.1815 126.728C15.1815 126.584 15.2055 126.44 15.2535 126.296C15.3175 126.136 15.3815 126.024 15.4455 125.96C15.4455 125.912 15.4615 125.824 15.4935 125.696C15.5415 125.568 15.5655 125.48 15.5655 125.432C15.5655 125.4 15.5815 125.344 15.6135 125.264C15.6615 125.168 15.6855 125.096 15.6855 125.048C15.9415 124.552 16.3895 123.44 17.0295 121.712C17.6695 119.968 17.9895 119 17.9895 118.808C17.9895 118.552 18.1175 118.424 18.3735 118.424C18.4535 118.344 18.5815 118.304 18.7575 118.304L19.1415 118.688C19.2535 118.8 19.3255 118.92 19.3575 119.048C19.3895 119.16 19.4055 119.336 19.4055 119.576C19.4055 119.816 19.3735 120.024 19.3095 120.2C19.2455 120.376 19.0855 120.736 18.8295 121.28C18.7815 121.392 18.7175 121.528 18.6375 121.688C18.5575 121.832 18.4695 122.016 18.3735 122.24C18.3415 122.32 18.2135 122.608 17.9895 123.104C17.8295 123.424 17.7495 123.608 17.7495 123.656C17.7495 123.704 17.7175 123.808 17.6535 123.968C17.5895 124.112 17.5335 124.264 17.4855 124.424C17.3575 124.68 17.1495 125.136 16.8615 125.792C16.5895 126.432 16.4535 126.784 16.4535 126.848C16.4535 127.024 16.4135 127.152 16.3335 127.232C16.2855 127.232 16.2535 127.272 16.2375 127.352C16.2215 127.416 16.2135 127.464 16.2135 127.496C16.2135 127.656 16.0855 128.08 15.8295 128.768L15.6135 129.464C15.3095 130.504 15.0935 131.264 14.9655 131.744C14.8535 132.224 14.7975 132.632 14.7975 132.968C14.7975 133.368 14.7815 133.624 14.7495 133.736C14.7335 133.848 14.6695 133.936 14.5575 134ZM20.4842 123.488C20.3722 123.376 20.2762 123.184 20.1962 122.912C20.1162 122.64 20.1162 122.504 20.1962 122.504C20.3242 122.488 20.4682 122.352 20.6282 122.096C20.8042 121.824 20.8842 121.6 20.8682 121.424C20.8682 121.36 20.8922 121.304 20.9402 121.256C20.9882 121.192 21.0442 121.152 21.1082 121.136C21.2362 121.056 21.3482 121.016 21.4442 121.016C21.7162 121.016 21.9642 121.208 22.1882 121.592C22.2842 121.8 22.3322 121.984 22.3322 122.144C22.3322 122.288 22.2922 122.44 22.2122 122.6C22.1322 122.744 21.9882 122.936 21.7802 123.176C21.5082 123.544 21.2522 123.728 21.0122 123.728C20.8522 123.728 20.6762 123.648 20.4842 123.488ZM18.1562 133.232C17.9322 133.008 17.8202 132.688 17.8202 132.272C17.8202 132.048 17.8602 131.856 17.9402 131.696C17.9402 131.616 17.9562 131.52 17.9882 131.408C18.0202 131.296 18.0362 131.224 18.0362 131.192C18.0202 131.096 18.0842 130.832 18.2282 130.4C18.5162 129.76 18.9002 128.632 19.3802 127.016C19.3802 126.936 19.4122 126.872 19.4762 126.824C19.5402 126.76 19.6362 126.72 19.7642 126.704C19.8922 126.672 19.9802 126.656 20.0282 126.656C20.1242 126.656 20.2042 126.696 20.2682 126.776C20.3482 126.84 20.4522 126.968 20.5802 127.16C20.6762 127.256 20.7242 127.4 20.7242 127.592C20.7242 127.896 20.6202 128.264 20.4122 128.696C20.2042 129.16 20.0682 129.56 20.0042 129.896C19.8122 130.328 19.6602 130.728 19.5482 131.096C19.5162 131.192 19.4682 131.384 19.4042 131.672C19.3402 131.96 19.2522 132.192 19.1402 132.368C19.0442 132.816 18.9562 133.128 18.8762 133.304C18.7962 133.48 18.7082 133.568 18.6122 133.568C18.5002 133.568 18.3482 133.456 18.1562 133.232ZM24.8888 133.448C24.3928 133.448 24.0648 133.424 23.9048 133.376C23.7448 133.312 23.5608 133.184 23.3528 132.992C23.1928 132.672 23.0328 132.432 22.8728 132.272C22.8088 132.096 22.7768 131.832 22.7768 131.48C22.7768 131.08 22.8248 130.648 22.9208 130.184C23.0168 129.704 23.1448 129.256 23.3048 128.84C23.3688 128.712 23.4168 128.592 23.4488 128.48C23.4968 128.368 23.5288 128.296 23.5448 128.264C23.5448 128.152 23.7448 127.808 24.1448 127.232C24.5608 126.64 24.8888 126.232 25.1288 126.008C25.2408 125.88 25.4088 125.744 25.6328 125.6C25.8728 125.456 26.0808 125.352 26.2568 125.288C26.7048 125.128 27.0968 125.048 27.4328 125.048C27.8968 125.048 28.2888 125.264 28.6088 125.696C28.9608 126.048 29.1368 126.44 29.1368 126.872C29.1368 127.032 29.1128 127.208 29.0648 127.4C28.9048 128.04 28.6728 128.36 28.3688 128.36C28.1608 128.36 27.9608 128.24 27.7688 128C27.7048 127.84 27.6728 127.736 27.6728 127.688C27.6728 127.64 27.7048 127.504 27.7688 127.28C27.8008 127.12 27.8168 127.008 27.8168 126.944C27.8168 126.752 27.7848 126.584 27.7208 126.44C27.6568 126.296 27.5688 126.224 27.4568 126.224C27.0888 126.224 26.6088 126.544 26.0168 127.184C25.8088 127.408 25.5368 127.76 25.2008 128.24C24.8808 128.72 24.6408 129.152 24.4808 129.536C24.3208 130.016 24.1928 130.408 24.0968 130.712C24.0008 131.016 23.9368 131.208 23.9048 131.288C23.9048 131.32 23.9208 131.376 23.9528 131.456C24.0008 131.536 24.0248 131.6 24.0248 131.648C24.0248 131.76 24.0488 131.848 24.0968 131.912C24.1448 131.976 24.2328 132.04 24.3608 132.104C24.5368 132.232 24.7448 132.296 24.9848 132.296C25.2408 132.296 25.5368 132.216 25.8728 132.056C26.0808 131.96 26.3768 131.752 26.7608 131.432L27.3368 131C27.4488 130.92 27.5448 130.856 27.6248 130.808C27.7208 130.744 27.7928 130.704 27.8408 130.688C27.8888 130.656 27.9128 130.656 27.9128 130.688C27.9128 130.752 27.9368 130.784 27.9848 130.784C28.0328 130.784 28.0888 130.752 28.1528 130.688C28.2968 130.496 28.4808 130.4 28.7048 130.4C28.8328 130.4 28.8968 130.424 28.8968 130.472L28.8728 130.592C28.8728 130.672 28.9128 130.752 28.9928 130.832C28.9928 130.896 28.9688 130.984 28.9208 131.096C28.8888 131.192 28.8408 131.272 28.7768 131.336C28.6808 131.48 28.5128 131.656 28.2728 131.864C28.0488 132.056 27.8968 132.184 27.8168 132.248H27.7928C27.7128 132.248 27.6008 132.32 27.4568 132.464C27.2168 132.688 27.0088 132.8 26.8328 132.8C26.7688 132.832 26.6968 132.872 26.6168 132.92C26.5368 132.952 26.4968 132.992 26.4968 133.04C26.3368 133.2 26.1448 133.312 25.9208 133.376C25.6968 133.424 25.3528 133.448 24.8888 133.448ZM36.9748 134.048C36.9268 134.096 36.7988 134.12 36.5908 134.12C36.2388 134.12 35.9348 134.056 35.6788 133.928C35.6308 133.896 35.5348 133.816 35.3908 133.688C35.2628 133.56 35.1668 133.448 35.1028 133.352L34.2148 132.416C34.1348 132.256 33.8228 131.904 33.2788 131.36C33.1028 131.136 32.9348 130.96 32.7748 130.832C32.6308 130.688 32.5268 130.616 32.4628 130.616L31.6948 133.256C31.5668 133.48 31.4628 133.632 31.3828 133.712C31.3028 133.792 31.2068 133.832 31.0948 133.832C30.9028 133.832 30.7428 133.752 30.6148 133.592C30.4868 133.416 30.4228 133.184 30.4228 132.896C30.2948 132.432 30.7188 130.984 31.6948 128.552C31.7428 128.328 31.8228 128.072 31.9348 127.784C32.0468 127.48 32.1268 127.264 32.1748 127.136C32.4308 126.32 32.8708 125.184 33.4948 123.728L33.9268 122.744C34.1988 122.184 34.4948 121.6 34.8148 120.992C35.6628 119.424 36.1988 118.512 36.4228 118.256C36.5508 118.128 36.7028 118.064 36.8788 118.064C37.0548 118.064 37.2068 118.128 37.3348 118.256C37.4948 118.448 37.5748 118.616 37.5748 118.76C37.5748 119.032 37.3748 119.488 36.9748 120.128C36.7988 120.496 36.6388 120.8 36.4948 121.04C36.3668 121.216 36.2148 121.472 36.0388 121.808C35.9268 122.128 35.8068 122.288 35.6788 122.288C35.6628 122.368 35.6308 122.472 35.5828 122.6C35.5508 122.728 35.5028 122.856 35.4388 122.984C35.3908 123.144 35.3108 123.336 35.1988 123.56C35.0868 123.784 35.0148 123.944 34.9828 124.04C34.9508 124.104 34.9028 124.2 34.8388 124.328C34.7908 124.456 34.7108 124.616 34.5988 124.808C34.1508 125.736 33.9028 126.312 33.8548 126.536C33.8548 126.552 33.8628 126.56 33.8788 126.56C33.9108 126.56 33.9748 126.528 34.0708 126.464C34.1668 126.4 34.2468 126.344 34.3108 126.296C34.6948 125.992 35.1348 125.696 35.6308 125.408C36.1268 125.12 36.5108 124.952 36.7828 124.904C36.9908 124.84 37.1828 124.808 37.3588 124.808C37.5348 124.808 37.6948 124.84 37.8388 124.904C38.2068 125.128 38.4468 125.52 38.5588 126.08C38.5588 126.336 38.4308 126.752 38.1748 127.328C37.9348 127.888 37.7108 128.256 37.5028 128.432C37.3908 128.48 37.3028 128.528 37.2388 128.576C37.1908 128.608 37.1588 128.632 37.1428 128.648C37.1428 128.712 37.1108 128.8 37.0468 128.912C36.9828 129.008 36.8948 129.08 36.7828 129.128C36.5588 129.352 36.4468 129.504 36.4468 129.584V129.704C36.3988 129.704 36.2948 129.76 36.1348 129.872C35.9908 129.984 35.8548 130.088 35.7268 130.184C35.5508 130.36 35.4068 130.464 35.2948 130.496C35.1988 130.528 35.1188 130.552 35.0548 130.568C35.0228 130.6 34.9508 130.64 34.8388 130.688C34.7428 130.72 34.6948 130.76 34.6948 130.808C34.6948 130.92 34.9508 131.272 35.4628 131.864C35.9908 132.44 36.3508 132.792 36.5428 132.92C36.7028 133 36.8228 133.128 36.9028 133.304C36.9828 133.464 37.0228 133.624 37.0228 133.784C37.0228 133.864 37.0068 133.952 36.9748 134.048ZM34.0948 129.8C34.3668 129.608 34.8388 129.232 35.5108 128.672C36.1988 128.096 36.6228 127.704 36.7828 127.496C36.8788 127.4 36.9748 127.248 37.0708 127.04C37.1668 126.816 37.2148 126.624 37.2148 126.464C37.2148 126.4 37.1988 126.336 37.1668 126.272C37.1348 126.192 36.6788 126.376 35.7988 126.824C35.3028 127.112 34.7908 127.472 34.2628 127.904C33.7348 128.336 33.3588 128.736 33.1348 129.104C33.0868 129.264 33.1428 129.432 33.3028 129.608C33.4628 129.768 33.6468 129.848 33.8548 129.848C33.9668 129.848 34.0468 129.832 34.0948 129.8ZM46.0809 132.704C45.8409 132.704 45.6569 132.648 45.5289 132.536C45.4009 132.424 45.3129 132.336 45.2649 132.272C45.2329 132.208 45.2169 132.128 45.2169 132.032C45.2169 131.968 45.2729 131.672 45.3849 131.144L45.6009 130.352C45.7609 129.696 45.9049 129.152 46.0329 128.72C46.0969 128.32 46.2169 127.896 46.3929 127.448C46.5849 127 46.6969 126.728 46.7289 126.632C46.8569 126.168 47.1049 125.448 47.4729 124.472L48.1929 122.528C48.7529 121.008 49.0889 120.08 49.2009 119.744L49.5849 118.688C49.5849 118.432 49.7129 118.304 49.9689 118.304C50.1929 118.304 50.3769 118.432 50.5209 118.688C50.6809 118.928 50.7609 119.208 50.7609 119.528C50.7609 119.768 50.7129 120 50.6169 120.224C50.3929 120.704 50.1449 121.312 49.8729 122.048C49.6169 122.768 49.4489 123.24 49.3689 123.464C48.8249 125 48.4329 126.024 48.1929 126.536C48.1929 126.6 48.1689 126.712 48.1209 126.872C48.0729 127.032 48.0169 127.176 47.9529 127.304L47.6889 127.832C47.6889 127.88 47.6009 128.216 47.4249 128.84C47.2009 129.528 47.0649 130.032 47.0169 130.352C47.0969 130.208 47.2649 129.992 47.5209 129.704C47.7769 129.4 48.0169 129.152 48.2409 128.96C49.1209 128.208 49.6649 127.76 49.8729 127.616C50.0649 127.504 50.2249 127.4 50.3529 127.304C50.4809 127.208 50.5689 127.144 50.6169 127.112C50.6169 127.032 50.7049 126.992 50.8809 126.992C50.9449 126.992 50.9769 126.984 50.9769 126.968C50.9929 126.952 51.0009 126.912 51.0009 126.848C51.0009 126.736 51.1849 126.64 51.5529 126.56C51.9209 126.464 52.2489 126.416 52.5369 126.416C52.7289 126.416 52.8809 126.456 52.9929 126.536C53.1049 126.616 53.2489 126.792 53.4249 127.064C53.6969 127.448 53.8329 127.864 53.8329 128.312C53.8329 128.568 53.7849 128.832 53.6889 129.104C53.6889 129.232 53.6649 129.432 53.6169 129.704C53.5849 129.96 53.5689 130.184 53.5689 130.376L53.4249 131.144H53.8089C53.9209 131.144 54.0249 131.16 54.1209 131.192C54.2329 131.224 54.3049 131.248 54.3369 131.264C54.4809 131.44 54.6089 131.528 54.7209 131.528C54.8649 131.528 54.9369 131.584 54.9369 131.696C54.9369 131.76 54.9049 131.84 54.8409 131.936C54.7769 132.032 54.6889 132.112 54.5769 132.176C54.1609 132.432 53.8089 132.56 53.5209 132.56C53.2489 132.56 52.9689 132.432 52.6809 132.176C52.3289 131.824 52.1529 131.4 52.1529 130.904C52.1529 130.648 52.2009 130.344 52.2969 129.992L52.3689 129.224C52.4009 128.84 52.4169 128.6 52.4169 128.504C52.4169 128.136 52.3289 127.952 52.1529 127.952C51.9289 127.952 51.4969 128.152 50.8569 128.552C50.2329 128.936 49.5849 129.424 48.9129 130.016C48.2409 130.592 47.7049 131.176 47.3049 131.768C47.0649 132.072 46.8569 132.304 46.6809 132.464C46.5209 132.608 46.3689 132.688 46.2249 132.704H46.0809ZM58.7978 134.072C58.1098 134.072 57.5418 133.816 57.0938 133.304C56.6458 132.792 56.4218 132.152 56.4218 131.384C56.4218 130.616 56.5898 129.776 56.9258 128.864C57.2778 127.936 57.7258 127.104 58.2698 126.368C58.8138 125.632 59.3658 125.136 59.9258 124.88C60.2458 124.704 60.6058 124.616 61.0058 124.616C61.3098 124.616 61.6538 124.704 62.0378 124.88C62.3098 124.992 62.5178 125.128 62.6618 125.288C62.8058 125.448 62.9338 125.696 63.0458 126.032C63.0938 126.32 63.1178 126.52 63.1178 126.632C63.1178 126.728 63.0778 126.936 62.9978 127.256C62.8058 127.848 62.5498 128.352 62.2298 128.768C61.9258 129.168 61.5258 129.512 61.0298 129.8C60.7738 129.96 60.4538 130.04 60.0698 130.04C59.7338 130.04 59.4138 129.984 59.1098 129.872C58.8218 129.744 58.5978 129.56 58.4378 129.32L58.2698 129.128L58.1978 129.32C57.8618 130.184 57.6938 130.92 57.6938 131.528C57.6938 131.944 57.7738 132.28 57.9338 132.536C58.0458 132.712 58.3178 132.8 58.7498 132.8C59.0698 132.8 59.3018 132.768 59.4458 132.704C59.6858 132.624 59.8938 132.528 60.0698 132.416C60.2618 132.288 60.4458 132.16 60.6218 132.032L60.7178 131.984H60.6938C60.8858 131.888 61.0458 131.8 61.1738 131.72C61.3018 131.64 61.3898 131.584 61.4378 131.552C61.4698 131.552 61.5018 131.544 61.5338 131.528C61.5658 131.512 61.5978 131.48 61.6298 131.432C61.7738 131.368 61.9418 131.392 62.1338 131.504C62.3258 131.616 62.4218 131.76 62.4218 131.936C62.3898 132.064 62.2458 132.272 61.9898 132.56C61.7338 132.848 61.5418 133 61.4138 133.016C61.3978 133.016 61.3418 133.04 61.2458 133.088C61.1498 133.136 61.0858 133.176 61.0538 133.208H61.0778C60.9338 133.4 60.7898 133.496 60.6458 133.496H60.4538C60.3898 133.624 60.1738 133.752 59.8058 133.88C59.4538 134.008 59.1178 134.072 58.7978 134.072ZM59.8778 128.792C60.3578 128.792 60.7978 128.52 61.1978 127.976C61.5818 127.464 61.7738 126.952 61.7738 126.44C61.7738 126.168 61.7178 125.976 61.6058 125.864C61.5098 125.816 61.4218 125.792 61.3418 125.792C61.2618 125.792 61.1258 125.816 60.9338 125.864C60.7258 125.912 60.4058 126.136 59.9738 126.536C59.5418 126.92 59.2218 127.264 59.0138 127.568L58.7018 128.072C58.8298 128.024 58.9498 128 59.0618 128C59.1898 127.984 59.2618 127.992 59.2778 128.024C59.2778 128.248 59.3338 128.432 59.4458 128.576C59.5578 128.72 59.7018 128.792 59.8778 128.792ZM65.7144 133.256C65.6184 133.256 65.4824 133.224 65.3064 133.16C65.1304 133.096 65.0184 133.04 64.9704 132.992C64.8104 132.832 64.7304 132.648 64.7304 132.44C64.7304 132.088 64.9064 131.664 65.2584 131.168C65.3544 130.976 65.5944 130.312 65.9784 129.176L66.4584 127.856C66.4904 127.584 66.4744 127.392 66.4104 127.28C66.3464 127.152 66.2104 127.08 66.0024 127.064H65.8584C65.7144 127.064 65.6184 127.04 65.5704 126.992C65.5224 126.928 65.4984 126.776 65.4984 126.536C65.5144 126.344 65.5624 126.2 65.6424 126.104C65.7224 126.008 65.8584 125.896 66.0504 125.768C66.3064 125.64 66.5704 125.576 66.8424 125.576C67.0984 125.576 67.2904 125.632 67.4184 125.744C67.5144 125.808 67.5784 125.952 67.6104 126.176C67.6584 126.384 67.6824 126.608 67.6824 126.848C67.6984 127.072 67.7144 127.232 67.7304 127.328C67.8104 127.248 68.0024 127.088 68.3064 126.848C68.6264 126.592 68.8984 126.352 69.1224 126.128C69.3944 125.936 69.7064 125.752 70.0584 125.576C70.4104 125.4 70.6584 125.312 70.8024 125.312C70.9784 125.312 71.1544 125.36 71.3304 125.456C71.5064 125.536 71.6264 125.64 71.6904 125.768C71.8344 126.024 71.9064 126.256 71.9064 126.464C71.9064 126.688 71.8184 126.912 71.6424 127.136C71.4984 127.312 71.3144 127.448 71.0904 127.544C70.8664 127.64 70.7064 127.688 70.6104 127.688C70.5144 127.688 70.3944 127.616 70.2504 127.472C70.1064 127.328 70.0264 127.208 70.0104 127.112C70.0104 127.048 69.8024 127.176 69.3864 127.496C68.9864 127.8 68.6744 128.064 68.4504 128.288C68.1944 128.592 67.9304 128.992 67.6584 129.488C67.4024 129.984 67.0184 130.736 66.5064 131.744C66.4584 131.856 66.3464 132.128 66.1704 132.56C66.0904 132.816 66.0184 133 65.9544 133.112C65.8904 133.208 65.8104 133.256 65.7144 133.256ZM74.6269 133.424C74.1149 133.216 73.7549 132.952 73.5469 132.632C73.3389 132.296 73.2349 131.832 73.2349 131.24C73.2349 130.952 73.2589 130.616 73.3069 130.232L73.3549 129.368C73.3549 129.224 73.3389 129.112 73.3069 129.032C73.2749 128.952 73.2029 128.864 73.0909 128.768C73.0589 128.736 72.9789 128.656 72.8509 128.528C72.7229 128.4 72.6669 128.296 72.6829 128.216L72.6589 128.096C72.6589 127.984 72.6749 127.88 72.7069 127.784C72.7549 127.688 72.8029 127.64 72.8509 127.64C72.8989 127.64 72.9629 127.632 73.0429 127.616C73.1229 127.584 73.1949 127.576 73.2589 127.592C73.4829 127.592 73.5949 127.64 73.5949 127.736C73.6589 127.864 73.7629 127.88 73.9069 127.784C74.0669 127.672 74.2189 127.464 74.3629 127.16C74.5869 126.808 74.9149 126.44 75.3469 126.056C75.7949 125.656 76.1629 125.376 76.4509 125.216C76.5629 125.152 76.7469 125.096 77.0029 125.048C77.2589 124.984 77.4829 124.952 77.6749 124.952C77.9629 124.952 78.2109 125.016 78.4189 125.144C78.6429 125.272 78.8669 125.456 79.0909 125.696C79.3949 125.92 79.5469 126.272 79.5469 126.752C79.5469 127.088 79.4669 127.432 79.3069 127.784C79.2429 128.024 78.9869 128.328 78.5389 128.696C78.1069 129.064 77.7069 129.32 77.3389 129.464C76.8909 129.576 76.3789 129.632 75.8029 129.632C75.4189 129.632 75.1709 129.6 75.0589 129.536C74.8669 129.424 74.7309 129.856 74.6509 130.832C74.6349 130.944 74.6269 131.096 74.6269 131.288C74.6269 131.56 74.6669 131.776 74.7469 131.936C74.7629 131.952 74.8189 132.016 74.9149 132.128C75.0109 132.224 75.1309 132.312 75.2749 132.392C75.4189 132.456 75.5709 132.488 75.7309 132.488C75.8749 132.488 75.9869 132.472 76.0669 132.44C76.2429 132.392 76.4109 132.304 76.5709 132.176C76.7309 132.032 76.9549 131.816 77.2429 131.528C77.4989 131.272 77.6829 131.096 77.7949 131C77.8749 130.856 78.0349 130.784 78.2749 130.784C78.3389 130.784 78.4509 130.8 78.6109 130.832C78.7549 130.944 78.8269 131.064 78.8269 131.192C78.8269 131.32 78.7469 131.56 78.5869 131.912C78.5069 132.072 78.3069 132.296 77.9869 132.584C77.6829 132.856 77.4109 133.072 77.1709 133.232C76.6749 133.504 76.1789 133.64 75.6829 133.64C75.3789 133.64 75.0269 133.568 74.6269 133.424ZM76.0429 128.552C76.2029 128.52 76.4349 128.48 76.7389 128.432C77.0429 128.384 77.2909 128.28 77.4829 128.12C77.6909 127.944 77.9309 127.648 78.2029 127.232C78.2509 127.104 78.2749 126.976 78.2749 126.848C78.2749 126.608 78.2269 126.44 78.1309 126.344C78.0189 126.232 77.8909 126.176 77.7469 126.176C77.5229 126.176 77.2909 126.272 77.0509 126.464C76.8909 126.512 76.6509 126.688 76.3309 126.992C76.0269 127.296 75.7629 127.6 75.5389 127.904C75.3149 128.192 75.2429 128.36 75.3229 128.408C75.2909 128.456 75.3709 128.496 75.5629 128.528C75.7549 128.544 75.9149 128.552 76.0429 128.552Z" fill="black"/>
</svg>
