<?xml version="1.0" encoding="iso-8859-1"?>
<!-- Generator: Adobe Illustrator 19.0.0, SVG Export Plug-In . SVG Version: 6.00 Build 0)  -->
<svg version="1.1" id="Capa_1" xmlns="http://www.w3.org/2000/svg" xmlns:xlink="http://www.w3.org/1999/xlink" x="0px" y="0px"
	 viewBox="0 0 512.002 512.002" style="enable-background:new 0 0 512.002 512.002;" xml:space="preserve">
<path style="fill:#F4D44E;" d="M497.515,376.397l-15.591-20.969c0.147-1.385,16.088-44.028-2.47-81.05
	c-2.956-5.897-5.275-12.109-6.39-18.61c-7.734-45.158,15.147-106.274,15.585-107.657c7.976-25.21,11.143-35.271-8.129-44.541
	c-20.975-10.09-39.611,1.565-50.493,21.34c-1.478,2.684-23.375,43.309-28.394,96.101c-32.427-43.614-109.542-147.33-135.173-181.804
	c-9.57-12.872-27.47-16.838-41.151-8.463c-15.69,9.605-19.454,30.329-8.727,44.757c-0.078-0.105-16.225-21.823-15.763-21.201
	c-10.044-13.509-29.142-17.076-42.906-7.383c-14.235,10.025-17.333,29.743-7.009,43.629c18.404,24.751,14.172,19.062,16.177,21.758
	c-10.613-14.274-31.213-16.741-44.933-4.919c-12.32,10.615-13.89,29.181-4.187,42.232l29.883,40.192
	c-10.727-14.427-31.656-16.793-45.373-4.533c-11.959,10.689-13.317,28.973-3.747,41.845
	c4.915,6.611,139.517,187.646,146.997,197.706c15.394,20.705,36.428,34.741,59.394,41.564c21.609,6.42,30.426,23.475,32.95,26.145
	l1.039,1.397c8.647,11.629,25.082,14.046,36.711,5.4l116.335-86.497C503.697,404.252,506.096,387.939,497.515,376.397z"/>
<g>
	<path style="fill:#EAE9E8;" d="M392.233,83.871c-12.706-26.766-30.661-50.919-52.646-70.808c-3.072-2.778-3.309-7.522-0.531-10.594
		c2.779-3.072,7.523-3.31,10.595-0.53c23.429,21.193,42.576,46.939,56.134,75.498c1.776,3.742,0.183,8.217-3.559,9.993
		C398.5,89.2,394.018,87.631,392.233,83.871z"/>
	<path style="fill:#EAE9E8;" d="M350.186,95.598c-8.857-16.85-20.333-32.289-33.938-45.644c-2.956-2.902-3-7.651-0.098-10.607
		c2.902-2.957,7.651-2.999,10.607-0.099c14.692,14.423,27.113,31.117,36.707,49.37c1.927,3.666,0.517,8.202-3.149,10.129
		C356.639,100.679,352.109,99.258,350.186,95.598z"/>
	<path style="fill:#EAE9E8;" d="M66.218,329.91c-23.432-21.198-42.574-46.935-56.134-75.497c-1.777-3.742-0.183-8.217,3.558-9.993
		c3.742-1.776,8.216-0.183,9.993,3.559c12.709,26.769,30.658,50.915,52.647,70.807c3.072,2.778,3.309,7.522,0.53,10.594
		C74.042,332.442,69.298,332.698,66.218,329.91z"/>
	<path style="fill:#EAE9E8;" d="M89.113,292.602c-14.698-14.428-27.112-31.12-36.707-49.37c-1.927-3.667-0.518-8.202,3.149-10.13
		c3.667-1.926,8.202-0.518,10.129,3.148c8.861,16.857,20.333,32.292,33.937,45.646c2.956,2.901,3,7.651,0.099,10.607
		C96.822,295.456,92.072,295.508,89.113,292.602z"/>
</g>
<g>
	<path style="fill:#E8C842;" d="M152.24,92.338c11.357,15.274,101.334,136.29,98.291,132.198c4.959,6.67,14.534,7.735,20.838,2.317
		l0,0c5.732-4.925,6.679-13.444,2.169-19.509L193.383,99.541c-0.034-0.046-0.066-0.089-0.095-0.128l-0.11-0.148
		c-0.043-0.058-0.082-0.11-0.115-0.156l-0.083-0.111c0,0-0.001-0.002-0.002-0.002l-15.516-20.868
		c-8.274-11.128-7.92-25.997-0.13-36.626C152.739,39.904,133.969,67.756,152.24,92.338z"/>
	<path style="fill:#E8C842;" d="M206.104,268.159c5.32,7.156,15.701,8.048,22.165,1.904l0,0c5.029-4.78,5.698-12.562,1.558-18.131
		c-10.49-14.108-77.311-103.98-85.307-114.735c-8.33-11.203-8.344-26.465-0.39-37.279c-26.215-1.541-42.046,28.337-26.165,49.696
		C157.815,203.213,164.633,212.384,206.104,268.159z"/>
	<path style="fill:#E8C842;" d="M365.662,481.513l-1.039-1.397c-2.524-2.67-11.341-19.726-32.95-26.145
		c-22.965-6.823-44-20.859-59.394-41.564c-7.48-10.061-142.082-191.095-146.997-197.706c-8.316-11.185-8.376-26.453-0.403-37.277
		c-26.137-1.525-42.111,28.23-26.151,49.695c4.915,6.611,139.517,187.646,146.997,197.706
		c15.395,20.705,36.428,34.741,59.394,41.564c21.609,6.42,30.426,23.475,32.95,26.145l1.039,1.397
		c8.647,11.629,25.082,14.046,36.711,5.4l9.769-7.263C377.972,491.735,370.565,488.107,365.662,481.513z"/>
	<path style="fill:#E8C842;" d="M243.138,63.083L243.138,63.083C243.138,63.083,243.123,63.063,243.138,63.083
		c-8.287-11.145-7.919-26.043-0.094-36.674c-5.41-0.358-10.925,0.711-15.965,3.347l-0.002-0.004
		c-2.616,1.368-4.985,3.086-7.014,5.014c-0.003,0.003-0.007,0.006-0.011,0.01l0,0C209.318,44.983,207.319,61.588,215.6,74.1
		l0.982,1.401l88.768,119.391c5.184,6.972,15.301,7.831,21.586,1.833l0,0c5.799-5.534,6.521-14.539,1.677-20.926L243.138,63.083z
		 M234.623,51.632l-0.468-0.629C234.311,51.212,234.467,51.421,234.623,51.632z"/>
	<path style="fill:#E8C842;" d="M430.027,124.909c-0.922,1.675-9.793,18.144-17.555,43.112l-0.008-0.007
		c-4.674,15.035-8.945,33.155-10.831,52.996l0,0c8.228,10.935,25.624,5.616,26.329-8.051l0.225-4.367
		c5.018-52.792,26.915-93.416,28.394-96.101c2.605-4.735,5.66-8.997,9.081-12.614C450.913,99.66,438.254,109.96,430.027,124.909z"/>
</g>
<path d="M388.482,83.871c1.79,3.767,6.277,5.324,9.993,3.559c3.742-1.776,5.335-6.251,3.559-9.993
	c-13.548-28.537-32.687-54.289-56.135-75.499c-3.071-2.777-7.814-2.541-10.595,0.531c-2.778,3.072-2.541,7.815,0.531,10.595
	C357.811,32.943,375.765,57.087,388.482,83.871z"/>
<path d="M312.398,39.346c-2.901,2.956-2.857,7.705,0.099,10.607c13.592,13.341,25.067,28.771,33.938,45.645
	c1.342,2.553,3.948,4.012,6.647,4.012c5.564,0,9.28-5.959,6.633-10.993c-9.581-18.225-21.992-34.925-36.707-49.369
	C320.05,36.348,315.302,36.39,312.398,39.346z"/>
<path d="M19.885,247.978c-1.776-3.741-6.25-5.336-9.993-3.559c-3.741,1.776-5.335,6.251-3.559,9.993
	c13.548,28.537,32.686,54.286,56.134,75.497c1.436,1.299,3.234,1.938,5.029,1.938c6.806,0,10.143-8.442,5.033-13.063
	c-10.942-9.899-20.969-20.941-29.8-32.818C33.896,274.085,26.211,261.303,19.885,247.978z"/>
<path d="M61.933,236.251c-1.926-3.665-6.459-5.074-10.13-3.148c-3.666,1.928-5.076,6.463-3.148,10.13
	c9.231,17.559,21.469,34.413,36.707,49.37c2.954,2.899,7.703,2.86,10.607-0.099c2.901-2.956,2.857-7.705-0.099-10.607
	C82.277,268.552,70.804,253.125,61.933,236.251z"/>
<path d="M289.83,75.683c-3.324,2.472-4.016,7.171-1.544,10.494l103.578,139.309c4.091,5.502,12.838,3.055,13.486-3.765
	c4.912-51.683,26.576-91.522,27.497-93.194c3.853-7.006,18.18-29.018,40.668-18.198c14.204,6.834,11.611,10.803,4.122,35.816
	c-5.497,15.446-22.878,69.093-15.72,110.888c3.435,20.051,11.442,21.223,14.568,47.355c1.252,10.46,0.869,21.125-1.127,31.831
	c-0.482,2.363-3.211,13.553-13.584,26.015c-2.649,3.184-2.217,7.913,0.967,10.564c3.189,2.655,7.919,2.21,10.564-0.967
	c1.427-1.714,2.733-3.412,3.935-5.084l10.503,14.126c6.101,8.205,4.388,19.843-3.815,25.942l-15.78,11.733
	c-5.795,4.308-2.714,13.52,4.48,13.52c4.236,0,4.927-2.383,20.251-13.215c14.841-11.036,17.939-32.09,6.903-46.931l-13.367-17.98
	c1.904-7.314,8.028-25.754,4.968-51.339c-3.324-27.768-11.94-32.114-14.678-48.103c-6.713-39.192,11.373-92.947,15.066-103.325
	c0.155-0.437,0.247-0.707,0.277-0.803c7.899-24.969,13.117-41.466-12.029-53.564c-22.497-10.822-46.173-1.213-60.314,24.482
	c-0.866,1.574-19.008,34.933-26.809,80.441L300.324,77.227C297.852,73.902,293.153,73.209,289.83,75.683z"/>
<path d="M450.505,441.013c-2.472-3.326-7.172-4.018-10.494-1.544l-72.418,53.844c-8.293,6.165-20.053,4.433-26.217-3.855
	c-2.995-3.154-13.062-22.889-37.872-30.259c-44.591-13.246-59.616-46.662-68.075-55.748c-2.471-3.324-7.171-4.016-10.495-1.543
	c-3.323,2.472-4.015,7.171-1.543,10.495c7.916,8.427,25.751,46.297,75.842,61.176c19.255,5.72,26.879,21.366,30.107,24.829
	c11.08,14.901,32.252,18.061,47.205,6.943l72.418-53.844C452.285,449.034,452.976,444.336,450.505,441.013z"/>
<path d="M200.638,46.846c-21.714-23.89-61.463-12.786-66.591,19.229c-1.479,9.233,0.392,18.453,5.278,26.291
	c-31.77-0.685-50.429,35.775-31.132,61.726l11.734,15.782c-32.355-0.346-49.896,36.267-30.972,61.72
	c43.01,57.847-41.814-56.238,113.512,152.671c1.472,1.98,3.733,3.026,6.025,3.025c6.073,0,9.723-6.987,6.014-11.976
	c-136.522-183.622-99.07-133.247-113.512-152.671c-12.373-16.643,0.388-39.717,20.698-37.654
	c11.121,1.128,16.275,9.205,16.393,9.308l68.253,91.798c1.472,1.98,3.733,3.025,6.025,3.025c6.089,0,9.715-6.998,6.014-11.976
	c-9.24-12.428-88.916-119.589-98.147-132.004c-7.48-10.06-6.135-24.148,3.063-32.073c10.362-8.927,25.938-7.154,34.018,3.712
	l92.621,124.573c1.472,1.98,3.733,3.025,6.025,3.025c1.556,0,3.125-0.481,4.469-1.481c3.324-2.472,4.016-7.171,1.544-10.494
	c-8.173-10.992-103.367-139.027-108.799-146.332c-7.825-10.523-5.477-25.424,5.307-33.021c10.247-7.214,24.856-4.645,32.568,5.727
	c2.024,2.722,113.197,152.247,114.287,153.713c2.474,3.33,7.179,4.011,10.494,1.544c3.324-2.472,4.016-7.171,1.544-10.494
	L218.852,71.025v-0.001c-7.985-10.737-5.468-26.482,6.624-33.883c10.155-6.217,23.866-3.343,31.216,6.541l10.675,14.358
	c2.471,3.325,7.171,4.016,10.494,1.544c3.324-2.471,4.016-7.17,1.544-10.494l-10.675-14.358
	C249.647,9.066,209.278,15.795,200.638,46.846z"/>
<g>
</g>
<g>
</g>
<g>
</g>
<g>
</g>
<g>
</g>
<g>
</g>
<g>
</g>
<g>
</g>
<g>
</g>
<g>
</g>
<g>
</g>
<g>
</g>
<g>
</g>
<g>
</g>
<g>
</g>
</svg>
