<?xml version="1.0" encoding="iso-8859-1"?>
<!-- Generator: Adobe Illustrator 19.0.0, SVG Export Plug-In . SVG Version: 6.00 Build 0)  -->
<svg version="1.1" id="Capa_1" xmlns="http://www.w3.org/2000/svg" xmlns:xlink="http://www.w3.org/1999/xlink" x="0px" y="0px"
	 viewBox="0 0 512 512" style="enable-background:new 0 0 512 512;" xml:space="preserve">
<path style="fill:#F4D44E;" d="M501.09,381.981l-9.085-12.219c-4.076-5.482-5.549-12.491-3.943-19.131
	c3.703-15.308,8.277-45.47-5.499-72.572c-3.02-5.942-5.247-12.278-6.348-18.852c-7.67-45.792,15.434-107.5,15.877-108.901
	c8.094-25.585,11.308-35.794-8.25-45.202c-21.286-10.24-40.199,1.588-51.241,21.657c-1.5,2.724-23.722,43.952-28.814,97.526
	c-32.908-44.26-111.167-149.516-137.179-184.5c-9.712-13.063-27.877-17.087-41.762-8.589c-15.923,9.747-19.742,30.779-8.856,45.421
	c-0.079-0.106-16.466-22.146-15.997-21.515c-10.193-13.71-29.574-17.329-43.542-7.493c-14.446,10.174-17.59,30.184-7.112,44.276
	c18.676,25.119,14.383,19.344,16.418,22.081c-10.77-14.485-31.676-16.989-45.6-4.992c-12.503,10.773-14.097,29.614-4.249,42.859
	l30.326,40.788c-10.885-14.641-32.126-17.041-46.046-4.601c-12.137,10.846-13.514,29.401-3.802,42.464
	c4.989,6.709,141.587,190.43,149.178,200.64c15.623,21.012,36.969,35.257,60.276,42.18c21.93,6.515,30.877,23.824,33.439,26.534
	l1.054,1.418c8.774,11.801,25.454,14.255,37.256,5.481l118.062-87.78C507.363,410.249,509.798,393.694,501.09,381.981z"/>
<g>
	<path style="fill:#EAE9E8;" d="M394.246,85.115c-12.895-27.164-31.116-51.674-53.427-71.858c-3.118-2.82-3.359-7.634-0.538-10.751
		c2.82-3.118,7.634-3.359,10.752-0.538C374.809,23.475,394.24,49.604,408,78.586c1.803,3.798,0.185,8.338-3.612,10.142
		C400.607,90.522,396.057,88.929,394.246,85.115z"/>
	<path style="fill:#EAE9E8;" d="M351.575,97.015c-8.989-17.099-20.634-32.768-34.441-46.321c-3-2.946-3.045-7.764-0.1-10.765
		c2.946-3.001,7.764-3.044,10.764-0.1c14.91,14.637,27.516,31.579,37.252,50.103c1.956,3.72,0.525,8.323-3.196,10.279
		C358.124,102.171,353.527,100.729,351.575,97.015z"/>
	<path style="fill:#EAE9E8;" d="M63.394,334.804c-23.779-21.512-43.205-47.632-56.967-76.618c-1.804-3.798-0.186-8.338,3.611-10.142
		c3.797-1.803,8.338-0.185,10.141,3.612c12.898,27.166,31.113,51.671,53.427,71.857c3.118,2.82,3.359,7.634,0.538,10.751
		C71.334,337.374,66.52,337.633,63.394,334.804z"/>
	<path style="fill:#EAE9E8;" d="M86.628,296.943c-14.916-14.642-27.515-31.582-37.253-50.103c-1.956-3.721-0.525-8.323,3.196-10.28
		c3.721-1.955,8.323-0.525,10.28,3.195c8.992,17.106,20.635,32.771,34.441,46.322c3,2.945,3.045,7.764,0.1,10.765
		C94.452,299.839,89.63,299.89,86.628,296.943z"/>
</g>
<g>
	<path style="fill:#E8C842;" d="M150.691,93.708c11.526,15.501,102.838,138.313,99.75,134.159c5.033,6.769,14.75,7.849,21.146,2.352
		l0,0c5.816-4.999,6.777-13.644,2.201-19.799l-81.345-109.404c-0.035-0.046-0.067-0.09-0.096-0.13l-0.111-0.15
		c-0.044-0.059-0.083-0.112-0.117-0.158l-0.084-0.112c0,0-0.001-0.002-0.002-0.002l-15.747-21.178
		c-8.396-11.293-8.038-26.384-0.132-37.17C151.197,40.495,132.15,68.761,150.691,93.708z"/>
	<path style="fill:#E8C842;" d="M205.354,272.136c5.4,7.262,15.934,8.167,22.494,1.933l0,0c5.104-4.852,5.782-12.749,1.581-18.399
		c-10.646-14.318-78.458-105.523-86.573-116.437c-8.454-11.369-8.468-26.858-0.396-37.832c-26.604-1.564-42.67,28.757-26.553,50.434
		C156.351,206.226,163.269,215.534,205.354,272.136z"/>
	<path style="fill:#E8C842;" d="M367.281,488.656l-1.055-1.418c-2.562-2.71-11.509-20.018-33.439-26.534
		c-23.306-6.924-44.652-21.168-60.276-42.18c-7.591-10.21-144.19-193.931-149.178-200.64c-8.439-11.351-8.5-26.846-0.409-37.831
		c-26.525-1.548-42.736,28.649-26.54,50.433c4.989,6.709,141.588,190.43,149.178,200.64c15.624,21.012,36.969,35.256,60.276,42.18
		c21.93,6.515,30.877,23.824,33.439,26.534l1.055,1.418c8.774,11.801,25.454,14.255,37.256,5.481l9.913-7.37
		C379.773,499.03,372.256,495.348,367.281,488.656z"/>
	<path style="fill:#E8C842;" d="M242.939,64.018L242.939,64.018C242.939,64.018,242.924,63.997,242.939,64.018
		c-8.409-11.31-8.036-26.43-0.095-37.219c-5.491-0.363-11.087,0.721-16.203,3.398l-0.002-0.004c-2.655,1.389-5.06,3.131-7.118,5.089
		c-0.003,0.003-0.007,0.006-0.011,0.01h0.001c-10.893,10.358-12.922,27.21-4.518,39.907l0.997,1.422l90.086,121.162
		c5.26,7.075,15.528,7.948,21.907,1.861l0,0c5.885-5.616,6.618-14.755,1.702-21.236L242.939,64.018z M234.298,52.396l-0.475-0.638
		C233.981,51.969,234.139,52.183,234.298,52.396z"/>
	<path style="fill:#E8C842;" d="M432.601,126.761c-0.936,1.7-9.938,18.412-17.815,43.751l-0.008-0.007
		c-4.743,15.259-9.078,33.648-10.991,53.782l0,0c8.349,11.097,26.004,5.699,26.72-8.17l0.228-4.432
		c5.093-53.575,27.315-94.802,28.814-97.526c2.644-4.805,5.743-9.131,9.215-12.801C453.797,101.137,440.949,111.591,432.601,126.761
		z"/>
</g>
<g>
</g>
<g>
</g>
<g>
</g>
<g>
</g>
<g>
</g>
<g>
</g>
<g>
</g>
<g>
</g>
<g>
</g>
<g>
</g>
<g>
</g>
<g>
</g>
<g>
</g>
<g>
</g>
<g>
</g>
</svg>
