<?xml version="1.0" encoding="iso-8859-1"?>
<!-- Generator: Adobe Illustrator 19.0.0, SVG Export Plug-In . SVG Version: 6.00 Build 0)  -->
<svg version="1.1" id="Capa_1" xmlns="http://www.w3.org/2000/svg" xmlns:xlink="http://www.w3.org/1999/xlink" x="0px" y="0px"
	 viewBox="0 0 511 511" style="enable-background:new 0 0 511 511;" xml:space="preserve">
<g>
	<path d="M498.962,102.751c-0.018-0.182-0.049-0.359-0.08-0.537c-0.011-0.063-0.016-0.128-0.029-0.191
		c-0.042-0.21-0.096-0.416-0.156-0.619c-0.009-0.03-0.014-0.061-0.023-0.091c-0.063-0.207-0.138-0.409-0.218-0.608
		c-0.011-0.027-0.019-0.055-0.03-0.081c-0.078-0.189-0.168-0.372-0.261-0.552c-0.019-0.037-0.034-0.075-0.054-0.112
		c-0.09-0.167-0.189-0.327-0.291-0.486c-0.031-0.048-0.057-0.098-0.088-0.145c-0.101-0.151-0.212-0.295-0.324-0.438
		c-0.039-0.05-0.073-0.102-0.113-0.151c-0.156-0.189-0.32-0.372-0.493-0.545L400.804,2.198c-0.173-0.173-0.355-0.338-0.545-0.493
		c-0.049-0.04-0.101-0.074-0.151-0.113c-0.143-0.112-0.287-0.223-0.438-0.324c-0.047-0.032-0.097-0.058-0.145-0.088
		c-0.159-0.101-0.319-0.201-0.486-0.291c-0.036-0.02-0.075-0.035-0.112-0.054c-0.181-0.093-0.364-0.183-0.552-0.261
		c-0.027-0.011-0.054-0.019-0.081-0.03c-0.199-0.08-0.401-0.155-0.608-0.218c-0.03-0.009-0.061-0.015-0.091-0.023
		c-0.203-0.059-0.409-0.114-0.619-0.156c-0.063-0.013-0.128-0.018-0.191-0.029c-0.177-0.031-0.355-0.062-0.537-0.08
		C396.001,0.013,395.751,0,395.5,0h-224C149.72,0,132,17.72,132,39.5V80H43.5C26.131,80,12,94.131,12,111.5v80
		c0,17.369,14.131,31.5,31.5,31.5H132v248.5c0,21.78,17.72,39.5,39.5,39.5h288c21.78,0,39.5-17.72,39.5-39.5v-368
		C499,103.249,498.987,102.999,498.962,102.751z M403,25.606L473.394,96H427.5C413.991,96,403,85.009,403,71.5V25.606z M27,191.5
		v-80c0-9.098,7.402-16.5,16.5-16.5h304c9.098,0,16.5,7.402,16.5,16.5v80c0,9.098-7.402,16.5-16.5,16.5H139.519
		c-0.007,0-0.013-0.001-0.019-0.001S139.487,208,139.481,208H43.5C34.402,208,27,200.598,27,191.5z M459.5,496h-288
		c-13.509,0-24.5-10.991-24.5-24.5V223h200.5c17.369,0,31.5-14.131,31.5-31.5v-80c0-17.369-14.131-31.5-31.5-31.5H147V39.5
		c0-13.509,10.991-24.5,24.5-24.5H388v56.5c0,21.78,17.72,39.5,39.5,39.5H484v360.5C484,485.009,473.009,496,459.5,496z"/>
	<path d="M115.5,112c-4.142,0-7.5,3.358-7.5,7.5V152H67v-32.5c0-4.142-3.358-7.5-7.5-7.5s-7.5,3.358-7.5,7.5v64
		c0,4.142,3.358,7.5,7.5,7.5s7.5-3.358,7.5-7.5V167h41v16.5c0,4.142,3.358,7.5,7.5,7.5s7.5-3.358,7.5-7.5v-64
		C123,115.358,119.642,112,115.5,112z"/>
	<path d="M211.5,191c4.142,0,7.5-3.358,7.5-7.5v-36.923l10.069,16.782c1.355,2.259,3.797,3.641,6.431,3.641h8
		c2.634,0,5.076-1.382,6.431-3.641L260,146.577V183.5c0,4.142,3.358,7.5,7.5,7.5s7.5-3.358,7.5-7.5v-64
		c0-3.371-2.249-6.328-5.498-7.228c-3.249-0.9-6.698,0.478-8.433,3.369L239.5,151.589l-21.569-35.948
		c-1.734-2.891-5.186-4.267-8.433-3.369c-3.249,0.9-5.498,3.857-5.498,7.228v64C204,187.642,207.358,191,211.5,191z"/>
	<path d="M139.5,127H156v56.5c0,4.142,3.358,7.5,7.5,7.5s7.5-3.358,7.5-7.5V127h16.5c4.142,0,7.5-3.358,7.5-7.5s-3.358-7.5-7.5-7.5
		h-48c-4.142,0-7.5,3.358-7.5,7.5S135.358,127,139.5,127z"/>
	<path d="M299.5,191h40c4.142,0,7.5-3.358,7.5-7.5s-3.358-7.5-7.5-7.5H307v-56.5c0-4.142-3.358-7.5-7.5-7.5s-7.5,3.358-7.5,7.5v64
		C292,187.642,295.358,191,299.5,191z"/>
	<path d="M341.872,280.385c-3.929-1.309-8.177,0.814-9.487,4.744l-48,144c-1.31,3.929,0.814,8.177,4.744,9.487
		c0.787,0.262,1.586,0.387,2.373,0.387c3.14,0,6.066-1.988,7.114-5.13l48-144C347.925,285.942,345.801,281.695,341.872,280.385z"/>
	<path d="M272.803,298.197c-2.929-2.929-7.678-2.929-10.606,0l-56,56c-2.929,2.929-2.929,7.678,0,10.606l56,56
		c1.464,1.464,3.384,2.197,5.303,2.197s3.839-0.732,5.303-2.197c2.929-2.929,2.929-7.678,0-10.606L222.106,359.5l50.697-50.697
		C275.732,305.875,275.732,301.125,272.803,298.197z"/>
	<path d="M368.803,298.197c-2.929-2.929-7.678-2.929-10.606,0c-2.929,2.929-2.929,7.678,0,10.606l50.697,50.697l-50.697,50.697
		c-2.929,2.929-2.929,7.678,0,10.606c1.464,1.464,3.384,2.197,5.303,2.197s3.839-0.732,5.303-2.197l56-56
		c2.929-2.929,2.929-7.678,0-10.606L368.803,298.197z"/>
</g>
<g>
</g>
<g>
</g>
<g>
</g>
<g>
</g>
<g>
</g>
<g>
</g>
<g>
</g>
<g>
</g>
<g>
</g>
<g>
</g>
<g>
</g>
<g>
</g>
<g>
</g>
<g>
</g>
<g>
</g>
</svg>
