<?xml version="1.0" encoding="iso-8859-1"?>
<!-- Generator: Adobe Illustrator 19.0.0, SVG Export Plug-In . SVG Version: 6.00 Build 0)  -->
<svg version="1.1" id="Layer_1" xmlns="http://www.w3.org/2000/svg" xmlns:xlink="http://www.w3.org/1999/xlink" x="0px" y="0px"
	 viewBox="0 0 392.598 392.598" style="enable-background:new 0 0 392.598 392.598;" xml:space="preserve">
<path style="fill:#56ACE0;" d="M370.78,32.711c0-6.012-4.848-10.925-10.925-10.925H32.743c-6.012,0-10.925,4.848-10.925,10.925
	v52.17H370.78L370.78,32.711L370.78,32.711z"/>
<path style="fill:#FFFFFF;" d="M21.818,359.822c0,6.012,4.848,10.925,10.925,10.925h327.111c6.012,0,10.925-4.848,10.925-10.925
	V106.731H21.818V359.822z"/>
<path style="fill:#FFC10D;" d="M43.604,128.517v7.758H91.96c6.012,0,10.925,4.848,10.925,10.925c0,6.012-4.848,10.925-10.925,10.925
	H43.604v23.467h15.644c6.012,0,10.925,4.848,10.925,10.925c0,6.012-4.848,10.925-10.925,10.925H43.604v145.584h305.325V128.517
	H43.604z"/>
<g>
	<path style="fill:#194F82;" d="M359.855,0H32.743C14.707,0,0.032,14.675,0.032,32.711v327.111
		c0,18.101,14.675,32.776,32.711,32.776h327.111c18.036,0,32.711-14.675,32.711-32.711V32.711C392.566,14.675,377.891,0,359.855,0z
		 M21.818,32.711c0-6.012,4.848-10.925,10.925-10.925h327.111c6.012,0,10.925,4.848,10.925,10.925v52.17H21.818V32.711z
		 M370.78,359.822L370.78,359.822c0,6.012-4.848,10.925-10.925,10.925H32.743c-6.012,0-10.925-4.848-10.925-10.925V106.731H370.78
		L370.78,359.822L370.78,359.822z"/>
	<path style="fill:#194F82;" d="M75.216,40.533H58.279c-6.012,0-10.925,4.848-10.925,10.925s4.848,10.925,10.925,10.925h16.937
		c6.012,0,10.925-4.848,10.925-10.925S81.228,40.533,75.216,40.533z"/>
	<path style="fill:#194F82;" d="M138.699,40.533h-16.937c-6.012,0-10.925,4.848-10.925,10.925s4.848,10.925,10.925,10.925h16.937
		c6.012,0,10.925-4.848,10.925-10.925S144.776,40.533,138.699,40.533z"/>
	<path style="fill:#194F82;" d="M341.56,40.533H187.83c-6.012,0-10.925,4.848-10.925,10.925s4.848,10.925,10.925,10.925h153.794
		c6.012,0,10.925-4.848,10.925-10.925S347.572,40.533,341.56,40.533z"/>
	<polygon style="fill:#194F82;" points="63.063,264.469 93.059,264.469 93.059,294.271 109.996,294.271 109.996,218.699 
		93.059,218.699 93.059,250.311 63.063,250.311 63.063,218.699 46.19,218.699 46.19,294.271 63.063,294.271 	"/>
	<polygon style="fill:#194F82;" points="143.677,294.271 160.549,294.271 160.549,233.309 181.947,233.309 181.947,218.699 
		122.279,218.699 122.279,233.309 143.677,233.309 	"/>
	<polygon style="fill:#194F82;" points="211.168,246.756 231.402,288 241.487,288 261.915,246.756 261.915,294.271 278.723,294.271 
		278.723,218.699 256.032,218.699 236.509,260.202 216.986,218.699 194.23,218.699 194.23,294.271 211.168,294.271 	"/>
	<polygon style="fill:#194F82;" points="346.408,279.273 314.214,279.273 314.214,218.699 297.341,218.699 297.341,294.271 
		346.408,294.271 	"/>
</g>
<g>
</g>
<g>
</g>
<g>
</g>
<g>
</g>
<g>
</g>
<g>
</g>
<g>
</g>
<g>
</g>
<g>
</g>
<g>
</g>
<g>
</g>
<g>
</g>
<g>
</g>
<g>
</g>
<g>
</g>
</svg>
