<svg id="Capa_1" enable-background="new 0 0 502.208 502.208" height="512" viewBox="0 0 502.208 502.208" width="512" xmlns="http://www.w3.org/2000/svg"><g><path d="m433.248 220.514c-4.803-7.338-16.414-4.887-18.11 3.6-.834 4.173 1.166 8.557 4.876 10.651 3.714 2.096 8.478 1.576 11.64-1.293 3.587-3.256 4.354-8.932 1.594-12.958z"/><path d="m66.677 399.225c0 8.014 3.121 15.548 8.787 21.213l72.983 72.983c5.667 5.666 13.2 8.787 21.213 8.787h235.871c16.542 0 30-13.458 30-30v-206.092c0-12.84-20-12.859-20 0v206.092c0 5.514-4.486 10-10 10h-232.862v-56.421c0-16.542-13.458-30-30-30h-55.992v-220.992h328.854v10.525c0 12.84 20 12.859 20 0v-155.32c0-16.542-13.458-30-30-30h-308.854c-16.542 0-30 13.458-30 30zm85.992 26.562v43.572l-53.572-53.572h43.572c5.514 0 10 4.486 10 10zm-65.992-270.992v-124.795c0-5.514 4.486-10 10-10h308.854c5.514 0 10 4.486 10 10v124.795z"/><path d="m177.065 58.389c7.491 0 11.368 3.919 11.629 11.759.661 10.366 20.383 7.795 20.383-3.528 0-8.101-3.071-14.458-9.211-19.077-12.531-9.418-34.148-9.856-46.254.523-5.794 4.965-8.689 12.762-8.689 23.388v34.625c0 10.629 2.895 18.423 8.689 23.389 12.182 10.442 33.875 9.966 46.254.13 6.141-4.877 9.211-11.541 9.211-19.991 0-3.744-.784-6.292-2.352-7.644-4.461-3.84-17.405-3.272-18.031 4.116-.715 7.459-3.182 13.066-11.498 13.066-7.927 0-11.89-4.355-11.89-13.066v-34.624c0-8.71 3.92-13.066 11.759-13.066z"/><path d="m274.799 85.893c-6.091-4.436-12.969-8.005-19.991-10.714-13.27-5.116-12.755-17.574 2.352-17.574 4.093 0 7.84.829 11.237 2.482 14.911 7.267 20.528-14.278 4.247-18.298-12.975-3.203-27.823-3.012-39.133 4.906-10.829 7.58-12.949 24.652-5.553 35.344 2.83 4.096 6.292 7.252 10.387 9.473 7.426 4.029 15.8 6.775 22.539 11.956 9.661 7.437 1.046 16.202-8.427 16.202-4.723 0-9.932-1.798-13.393-5.096-13.677-12.996-24.625 8.571-8.297 17.639 6.272 3.485 13.632 5.227 22.082 5.227 9.755 0 17.64-2.501 23.65-7.505s9.016-11.996 9.016-20.979c-.001-8.663-3.539-17.834-10.716-23.063z"/><path d="m349.414 85.893c-6.091-4.436-12.969-8.005-19.991-10.714-13.27-5.116-12.755-17.574 2.352-17.574 4.093 0 7.84.829 11.237 2.482 14.911 7.267 20.528-14.278 4.247-18.298-12.975-3.203-27.823-3.012-39.133 4.906-10.829 7.58-12.949 24.652-5.553 35.344 2.83 4.096 6.292 7.252 10.387 9.473 7.426 4.029 15.799 6.775 22.539 11.956 9.661 7.437 1.046 16.202-8.427 16.202-4.723 0-9.932-1.798-13.393-5.096-13.677-12.996-24.625 8.571-8.297 17.639 6.272 3.485 13.632 5.227 22.082 5.227 9.755 0 17.64-2.501 23.65-7.505s9.016-11.996 9.016-20.979c-.001-8.663-3.539-17.834-10.716-23.063z"/><path d="m204.65 288.473v-18.023c0-3.047 7.117-6.363 9.144-7.747 10.602-7.243-.666-23.769-11.282-16.514-8.908 6.085-17.861 12.098-17.861 24.261 0 8.339 3.426 27.848-9.911 27.848-12.852 0-12.762 20 .086 20 5.272 0 9.824 4.549 9.824 9.824v18.023c0 10.767 11.81 26.005 23.494 26.005 9.622 0 13.585-12.837 5.65-18.258-15.931-10.885-4.332-29.676-15.339-43.968-.431-.56-.881-1.102-1.349-1.626 4.796-5.383 7.544-12.616 7.544-19.825z"/><path d="m299.12 328.121v18.023c0 3.047-7.117 6.363-9.144 7.748-7.935 5.421-3.972 18.258 5.65 18.258 4.988 0 9.653-4.491 13.537-7.144 6.234-4.259 9.957-11.311 9.957-18.861v-18.023c0-5.347 4.607-9.824 9.911-9.824 12.852 0 12.762-20-.086-20-13.9 0-9.824-19.404-9.824-27.848 0-7.551-3.722-14.602-9.957-18.86-6.559-4.481-17.202-12.603-22.484-1.336-6.279 13.393 12.44 11.584 12.44 20.196 0 13.007-1.859 27.317 7.544 37.848-4.8 5.374-7.544 12.619-7.544 19.823z"/></g></svg>