<?xml version="1.0" encoding="iso-8859-1"?>
<!-- Generator: Adobe Illustrator 19.0.0, SVG Export Plug-In . SVG Version: 6.00 Build 0)  -->
<svg version="1.1" id="Layer_1" xmlns="http://www.w3.org/2000/svg" xmlns:xlink="http://www.w3.org/1999/xlink" x="0px" y="0px"
	 viewBox="0 0 512 512" style="enable-background:new 0 0 512 512;" xml:space="preserve">
<g>
	<polygon style="fill:#BDC3C7;" points="406.069,105.931 300.138,105.931 300.138,0 	"/>
	<polygon style="fill:#5889C4;" points="44.138,406.069 512,406.069 512,194.207 44.138,194.207 	"/>
	<path style="fill:#FFFFFF;" d="M114.759,379.586c-24.338,0-44.138-19.8-44.138-44.138c0-4.873,3.955-8.828,8.828-8.828
		c4.873,0,8.828,3.955,8.828,8.828c0,14.601,11.882,26.483,26.483,26.483s26.483-11.882,26.483-26.483s-11.882-26.483-26.483-26.483
		c-24.338,0-44.138-19.8-44.138-44.138c0-24.338,19.8-44.138,44.138-44.138s44.138,19.8,44.138,44.138
		c0,4.873-3.955,8.828-8.828,8.828c-4.873,0-8.828-3.955-8.828-8.828c0-14.601-11.882-26.483-26.483-26.483
		s-26.483,11.882-26.483,26.483c0,14.601,11.882,26.483,26.483,26.483c24.338,0,44.138,19.8,44.138,44.138
		S139.096,379.586,114.759,379.586"/>
	<polygon style="fill:#ECF0F1;" points="44.138,406.069 44.138,194.207 406.069,194.207 406.069,105.931 300.138,105.931 300.138,0 
		0,0 0,512 406.069,512 406.069,406.069 	"/>
	<g>
		<path style="fill:#FFFFFF;" d="M335.448,379.586c-24.338,0-44.138-19.8-44.138-44.138c0-4.873,3.955-8.828,8.828-8.828
			c4.873,0,8.828,3.955,8.828,8.828c0,14.601,11.882,26.483,26.483,26.483s26.483-11.882,26.483-26.483
			s-11.882-26.483-26.483-26.483c-24.338,0-44.138-19.8-44.138-44.138c0-24.338,19.8-44.138,44.138-44.138
			s44.138,19.8,44.138,44.138c0,4.873-3.955,8.828-8.828,8.828c-4.873,0-8.828-3.955-8.828-8.828
			c0-14.601-11.882-26.483-26.483-26.483s-26.483,11.882-26.483,26.483c0,14.601,11.882,26.483,26.483,26.483
			c24.338,0,44.138,19.8,44.138,44.138S359.786,379.586,335.448,379.586"/>
		<path style="fill:#FFFFFF;" d="M441.379,379.586c-24.338,0-44.138-19.8-44.138-44.138c0-4.873,3.955-8.828,8.828-8.828
			c4.882,0,8.828,3.955,8.828,8.828c0,14.601,11.882,26.483,26.483,26.483s26.483-11.882,26.483-26.483
			s-11.882-26.483-26.483-26.483c-24.338,0-44.138-19.8-44.138-44.138c0-24.338,19.8-44.138,44.138-44.138
			s44.138,19.8,44.138,44.138c0,4.873-3.946,8.828-8.828,8.828c-4.882,0-8.828-3.955-8.828-8.828
			c0-14.601-11.882-26.483-26.483-26.483s-26.483,11.882-26.483,26.483c0,14.601,11.882,26.483,26.483,26.483
			c24.338,0,44.138,19.8,44.138,44.138S465.717,379.586,441.379,379.586"/>
		<path style="fill:#FFFFFF;" d="M273.655,379.591c-3.575,0-6.938-2.189-8.271-5.729l-43.935-117.177l-36.467,116.71
			c-1.465,4.652-6.453,7.212-11.061,5.791c-4.652-1.457-7.247-6.4-5.8-11.061l44.138-141.241c1.13-3.602,4.414-6.082,8.183-6.188
			c3.778-0.168,7.186,2.198,8.519,5.72l52.966,141.241c1.704,4.573-0.609,9.657-5.173,11.37
			C275.73,379.405,274.688,379.591,273.655,379.591"/>
		<path style="fill:#FFFFFF;" d="M253.793,326.621h-60.69c-4.873,0-8.828-3.955-8.828-8.828c0-4.873,3.955-8.828,8.828-8.828h60.69
			c4.873,0,8.828,3.955,8.828,8.828C262.621,322.666,258.666,326.621,253.793,326.621"/>
	</g>
</g>
<g>
</g>
<g>
</g>
<g>
</g>
<g>
</g>
<g>
</g>
<g>
</g>
<g>
</g>
<g>
</g>
<g>
</g>
<g>
</g>
<g>
</g>
<g>
</g>
<g>
</g>
<g>
</g>
<g>
</g>
</svg>
