<svg viewBox="-6 0 512 512" xmlns="http://www.w3.org/2000/svg"><path d="m500.1875 109.710938c-.003906-.113282-.007812-.230469-.015625-.347657-.03125-.417969-.078125-.832031-.15625-1.234375-.003906-.015625-.003906-.03125-.007813-.042968-.085937-.441407-.210937-.867188-.351562-1.289063-.027344-.078125-.058594-.15625-.085938-.234375-.148437-.390625-.3125-.773438-.503906-1.140625-.015625-.027344-.027344-.058594-.039062-.085937-.207032-.386719-.445313-.753907-.699219-1.109376-.058594-.082031-.121094-.164062-.183594-.242187-.265625-.351563-.546875-.6875-.859375-1-.003906-.003906-.007812-.007813-.011718-.011719l-100.039063-100.042968c-.003906-.003907-.011719-.007813-.015625-.011719-.308594-.308594-.644531-.589844-.996094-.855469-.082031-.0625-.164062-.125-.246094-.183594-.351562-.253906-.71875-.492187-1.105468-.699218-.03125-.015626-.0625-.027344-.09375-.042969-.363282-.1875-.742188-.351563-1.132813-.5-.078125-.027344-.15625-.058594-.238281-.085938-.417969-.144531-.84375-.265625-1.285156-.355469-.015625 0-.027344-.003906-.042969-.003906-.402344-.078125-.816406-.1249998-1.238281-.1562498-.113282-.0078124-.226563-.0117187-.34375-.015625-.113282-.0078124-.222656-.0195312-.335938-.0195312h-280.113281c-5.527344 0-10.003906 4.480469-10.003906 10.003906v51.019532h-69.300781c-16.953126 0-30.742188 13.792968-30.742188 30.742187v118.59375c0 16.949219 13.789062 30.738281 30.742188 30.738281h69.300781v260.898438c0 5.523437 4.476562 10.003906 10.003906 10.003906h380.152344c5.527343 0 10.007812-4.480469 10.007812-10.003906v-391.949219c0-.113281-.015625-.222656-.019531-.335937zm-100.023438-75.554688 65.882813 65.886719h-65.882813zm-280.113281 457.835938v-250.894532h14.488281c5.527344 0 10.003907-4.480468 10.003907-10.003906s-4.476563-10.003906-10.003907-10.003906h-103.796874c-5.917969 0-10.734376-4.8125-10.734376-10.734375v-118.589844c0-5.917969 4.816407-10.730469 10.734376-10.730469h238.640624c5.917969 0 10.734376 4.8125 10.734376 10.730469v118.59375c0 5.917969-4.816407 10.730469-10.734376 10.730469h-54.808593c-5.527344 0-10.003907 4.480468-10.003907 10.007812 0 5.523438 4.476563 10.003906 10.003907 10.003906h54.808593c16.949219 0 30.742188-13.792968 30.742188-30.742187v-118.59375c0-16.949219-13.792969-30.742187-30.742188-30.742187h-149.332031v-41.015626h260.105469v90.039063c0 5.523437 4.480469 10.003906 10.003906 10.003906h90.035156v371.941407zm0 0"/><path d="m70.027344 101.042969h-20.007813c-5.523437 0-10.003906 4.480469-10.003906 10.003906v80.035156c0 5.523438 4.480469 10.003907 10.003906 10.003907 5.527344 0 10.003907-4.480469 10.003907-10.003907v-30.011719h10.003906c16.550781 0 30.015625-13.464843 30.015625-30.011718 0-16.550782-13.464844-30.015625-30.015625-30.015625zm0 40.019531h-10.003906v-20.011719h10.003906c5.519531 0 10.003906 4.488281 10.003906 10.007813 0 5.515625-4.484375 10.003906-10.003906 10.003906zm0 0"/><path d="m160.066406 191.082031c0 5.523438 4.476563 10.003907 10.003906 10.003907 5.523438 0 10.003907-4.480469 10.003907-10.003907v-80.035156c0-5.523437-4.480469-10.003906-10.003907-10.003906-5.527343 0-10.003906 4.480469-10.003906 10.003906v30.015625h-20.007812v-30.015625c0-5.523437-4.480469-10.003906-10.003906-10.003906-5.527344 0-10.003907 4.480469-10.003907 10.003906v80.035156c0 5.523438 4.476563 10.003907 10.003907 10.003907 5.523437 0 10.003906-4.480469 10.003906-10.003907v-30.011719h20.007812zm0 0"/><path d="m210.085938 201.085938c5.527343 0 10.003906-4.480469 10.003906-10.003907v-30.011719h10.003906c16.550781 0 30.011719-13.464843 30.011719-30.011718 0-16.550782-13.460938-30.015625-30.011719-30.015625h-20.007812c-5.523438 0-10.003907 4.480469-10.003907 10.003906v80.035156c0 5.523438 4.480469 10.003907 10.003907 10.003907zm10.003906-80.035157h10.003906c5.515625 0 10.003906 4.488281 10.003906 10.007813 0 5.515625-4.488281 10.003906-10.003906 10.003906h-10.003906zm0 0"/><path d="m231.09375 321.027344h200.082031c5.523438 0 10.003907-4.476563 10.003907-10.003906 0-5.523438-4.480469-10.003907-10.003907-10.003907h-200.082031c-5.523438 0-10.003906 4.480469-10.003906 10.003907 0 5.527343 4.480468 10.003906 10.003906 10.003906zm0 0"/><path d="m194.773438 361.152344c2.5625 0 5.121093-.980469 7.074218-2.929688 3.90625-3.910156 3.90625-10.242187 0-14.152344l-22.632812-22.632812 23.242187-23.242188c3.90625-3.90625 3.90625-10.238281 0-14.148437-3.90625-3.90625-10.238281-3.90625-14.148437 0l-30.316406 30.316406c-3.90625 3.910157-3.90625 10.242188 0 14.152344l29.707031 29.707031c1.957031 1.949219 4.515625 2.929688 7.074219 2.929688zm0 0"/><path d="m412.851562 384.089844c-3.910156-3.90625-10.242187-3.90625-14.148437 0s-3.90625 10.242187 0 14.148437l22.632813 22.632813-23.242188 23.242187c-3.90625 3.90625-3.90625 10.242188 0 14.148438 1.953125 1.953125 4.511719 2.929687 7.074219 2.929687 2.558593 0 5.117187-.976562 7.070312-2.929687l30.320313-30.316407c3.90625-3.90625 3.90625-10.242187 0-14.148437zm0 0"/><path d="m371.152344 341.035156h-140.058594c-5.523438 0-10.003906 4.480469-10.003906 10.003906 0 5.527344 4.480468 10.007813 10.003906 10.007813h140.058594c5.523437 0 10.003906-4.480469 10.003906-10.007813 0-5.523437-4.480469-10.003906-10.003906-10.003906zm0 0"/><path d="m371.152344 381.054688h-140.058594c-5.523438 0-10.003906 4.476562-10.003906 10.003906 0 5.523437 4.480468 10.003906 10.003906 10.003906h140.058594c5.523437 0 10.003906-4.480469 10.003906-10.003906 0-5.527344-4.480469-10.003906-10.003906-10.003906zm0 0"/><path d="m371.152344 420.964844h-200.082032c-5.527343 0-10.003906 4.480468-10.003906 10.003906s4.476563 10.003906 10.003906 10.003906h200.082032c5.523437 0 10.003906-4.480468 10.003906-10.003906s-4.480469-10.003906-10.003906-10.003906zm0 0"/><path d="m178.054688 221.421875c-.613282-.25-1.242188-.441406-1.871094-.570313-1.292969-.261718-2.621094-.261718-3.914063 0-.640625.128907-1.269531.320313-1.871093.570313-.609376.25-1.1875.558594-1.730469.917969-.550781.359375-1.058594.78125-1.519531 1.242187-.460938.46875-.878907.980469-1.242188 1.519531-.359375.550782-.667969 1.132813-.917969 1.730469-.25.601563-.441406 1.230469-.570312 1.871094-.128907.648437-.199219 1.300781-.199219 1.960937 0 .648438.070312 1.300782.199219 1.949219.128906.640625.320312 1.273438.570312 1.871094.25.601563.558594 1.183594.917969 1.730469.363281.542968.78125 1.050781 1.242188 1.523437 1.859374 1.859375 4.441406 2.929688 7.074218 2.929688.648438 0 1.308594-.070313 1.960938-.199219.628906-.128906 1.257812-.320312 1.871094-.570312.597656-.25 1.179687-.558594 1.71875-.921876.550781-.359374 1.0625-.777343 1.519531-1.238281.460937-.472656.882812-.980469 1.25-1.519531.363281-.550781.671875-1.132812.921875-1.734375.25-.597656.441406-1.226563.570312-1.867187.128906-.652344.191406-1.300782.191406-1.953126 0-.660156-.0625-1.308593-.191406-1.960937-.128906-.640625-.320312-1.269531-.570312-1.867187-.25-.601563-.558594-1.183594-.921875-1.734376-.367188-.539062-.789063-1.046874-1.25-1.519531-.457031-.460937-.96875-.878906-1.519531-1.238281-.539063-.363281-1.121094-.671875-1.71875-.921875zm0 0"/></svg>