<svg height="457pt" viewBox="0 0 457.15182 457" width="457pt" xmlns="http://www.w3.org/2000/svg"><path d="m448.011719 115.464844v332.617187h-330.242188v-438.859375h224v106.242188zm0 0" fill="#e7e4f3"/><path d="m448.007812 457.222656h-330.234374c-5.050782 0-9.144532-4.09375-9.144532-9.140625v-438.859375c0-5.046875 4.09375-9.1406248 9.144532-9.1406248h224c5.046874 0 9.140624 4.0937498 9.140624 9.1406248v97.097656h97.09375c5.050782 0 9.144532 4.09375 9.144532 9.144532v332.617187c0 5.046875-4.09375 9.140625-9.144532 9.140625zm-321.09375-18.285156h311.953126v-314.328125h-97.09375c-5.050782 0-9.144532-4.09375-9.144532-9.144531v-97.097656h-205.714844zm0 0" fill="#2a3d4f"/><path d="m448.011719 115.464844h-106.242188v-106.242188zm0 0" fill="#eb675e"/><path d="m448.007812 124.609375h-106.234374c-5.050782 0-9.144532-4.09375-9.144532-9.144531v-106.242188c0-3.695312 2.226563-7.03125 5.644532-8.445312 3.410156-1.425782 7.34375-.636719 9.964843 1.980468l106.234375 106.242188c2.617188 2.617188 3.398438 6.546875 1.984375 9.964844-1.417969 3.414062-4.75 5.644531-8.449219 5.644531zm-97.09375-18.289063h75.023438l-75.023438-75.023437zm0 0" fill="#2a3d4f"/><path d="m9.140625 87.960938h229.941406v127.8125h-229.941406zm0 0" fill="#fcdd40"/><g fill="#2a3d4f"><path d="m239.085938 224.914062h-229.941407c-5.050781 0-9.144531-4.09375-9.144531-9.140624v-127.8125c0-5.050782 4.09375-9.144532 9.144531-9.144532h229.941407c5.046874 0 9.140624 4.09375 9.140624 9.144532v127.8125c0 5.046874-4.09375 9.140624-9.140624 9.140624zm-220.800782-18.285156h211.65625v-109.527344h-211.65625zm0 0"/><path d="m36.410156 116.0625c4.601563-.765625 10.632813-1.421875 18.3125-1.421875 9.429688 0 16.339844 2.191406 20.722656 6.140625 4.058594 3.511719 6.46875 8.878906 6.46875 15.460938 0 6.6875-1.972656 11.949218-5.703124 15.789062-5.042969 5.371094-13.265626 8.117188-22.585938 8.117188-2.855469 0-5.484375-.113282-7.675781-.660157v29.605469h-9.539063zm9.539063 35.640625c2.082031.546875 4.714843.765625 7.894531.765625 11.511719 0 18.53125-5.59375 18.53125-15.789062 0-9.757813-6.90625-14.472657-17.433594-14.472657-4.171875 0-7.347656.328125-8.992187.765625zm0 0"/><path d="m104.316406 115.1875v30.925781h35.746094v-30.925781h9.652344v73.90625h-9.652344v-34.652344h-35.746094v34.652344h-9.539062v-73.90625zm0 0"/><path d="m166.3125 116.0625c4.601562-.765625 10.632812-1.421875 18.3125-1.421875 9.425781 0 16.339844 2.191406 20.722656 6.140625 4.058594 3.511719 6.46875 8.878906 6.46875 15.460938 0 6.6875-1.972656 11.949218-5.703125 15.789062-5.042969 5.371094-13.265625 8.117188-22.589843 8.117188-2.851563 0-5.480469-.113282-7.671876-.660157v29.605469h-9.539062zm9.539062 35.640625c2.082032.546875 4.714844.765625 7.890626.765625 11.515624 0 18.53125-5.59375 18.53125-15.789062 0-9.757813-6.90625-14.472657-17.429688-14.472657-4.171875 0-7.351562.328125-8.992188.765625zm0 0"/><path d="m335.738281 378.777344c0 5.667968-3.75 10.148437-9.875 10.148437-5.667969 0-9.601562-4.480469-9.601562-10.148437 0-6.125 4.023437-10.332032 9.785156-10.332032 5.757813 0 9.691406 4.207032 9.691406 10.332032zm0 0"/><path d="m355.851562 299.050781c0 11.0625-6.21875 19.109375-14.082031 28.4375-7.222656 8.5-9.78125 15.722657-9.324219 24.042969l.183594 4.296875h-12.800781l-.367187-4.296875c-.914063-8.777344 2.011718-18.46875 10.148437-28.25 7.40625-8.6875 11.519531-15.085938 11.519531-22.492188 0-8.320312-5.300781-13.898437-15.542968-14.078124-5.941407 0-12.433594 2.011718-16.546876 5.117187l-3.929687-10.332031c5.394531-3.929688 14.71875-6.488282 23.402344-6.488282 18.835937 0 27.339843 11.609376 27.339843 24.042969zm0 0"/><path d="m209.929688 339.097656 75.976562-39.132812v11.339844l-64 32.089843v.273438l64 32.09375v11.335937l-75.976562-39.132812zm0 0"/></g></svg>